<?xml version="1.0" encoding="UTF-8" standalone="no"?>
<svg width="103px" height="328px" viewBox="0 0 103 328" version="1.1" xmlns="http://www.w3.org/2000/svg" xmlns:xlink="http://www.w3.org/1999/xlink" xmlns:sketch="http://www.bohemiancoding.com/sketch/ns">
    <!-- Generator: Sketch 3.3.2 (12043) - http://www.bohemiancoding.com/sketch -->
    <title>noun_117897_cc</title>
    <desc>Created with Sketch.</desc>
    <defs></defs>
    <g id="Page-1" stroke="none" stroke-width="1" fill="none" fill-rule="evenodd" sketch:type="MSPage">
        <g id="Desktop" sketch:type="MSArtboardGroup" transform="translate(-328.000000, -54.000000)" fill="#C38D94">
            <g id="noun_117897_cc" sketch:type="MSLayerGroup" transform="translate(328.202954, 54.000000)">
                <path d="M0.187057283,153.979257 C26.6941746,147.80556 40.4924001,116.573918 40.4924001,85.7054354 C40.1292889,17.7947726 81.160854,0 102.584415,0 L102.584415,20.7000416 C100.768859,20.7000416 56.8324039,18.1579312 56.8324039,86.068594 C56.8324039,117.300236 52.8381807,149.258195 29.235953,163.78454 C52.8381807,178.310885 56.8324039,209.905685 56.8324039,241.500485 C56.8324039,309.411148 100.768859,306.869038 102.584415,306.869038 L102.584415,327.569079 C81.160854,327.569079 40.4924001,309.774307 40.4924001,241.863644 C40.4924001,210.995161 26.6941746,179.763519 0.187057283,173.589823 L0.187057283,153.979257 L0.187057283,153.979257 Z" id="Shape" sketch:type="MSShapeGroup"></path>
            </g>
        </g>
    </g>
</svg>